<svg width="42" height="42" viewBox="0 0 42 42" fill="none" xmlns="http://www.w3.org/2000/svg">
<g clip-path="url(#clip0_59_216)">
<path d="M34.125 42H7.875C5.78642 42 3.78338 41.1703 2.30653 39.6935C0.829685 38.2166 0 36.2136 0 34.125L0 7.875C0 5.78642 0.829685 3.78338 2.30653 2.30653C3.78338 0.829685 5.78642 0 7.875 0L34.125 0C36.2136 0 38.2166 0.829685 39.6935 2.30653C41.1703 3.78338 42 5.78642 42 7.875V34.125C42 36.2136 41.1703 38.2166 39.6935 39.6935C38.2166 41.1703 36.2136 42 34.125 42Z" fill="#F4F6F8"/>
<path d="M31.0551 12.0973L26.4613 10.5354C26.3244 10.4882 26.1756 10.4882 26.0387 10.5354L21.4449 12.0973C21.3151 12.1415 21.2023 12.2252 21.1225 12.3368C21.0427 12.4484 20.9998 12.5822 21 12.7194V16.2356C21 20.5275 25.7893 22.6117 25.9941 22.6996C26.0748 22.7347 26.162 22.7528 26.25 22.7528C26.3381 22.7528 26.4252 22.7347 26.5059 22.6996C26.7107 22.6117 31.5 20.5262 31.5 16.2343V12.7194C31.5002 12.5822 31.4573 12.4484 31.3775 12.3368C31.2977 12.2252 31.1849 12.1415 31.0551 12.0973ZM29.1257 15.4153L26.7199 18.4773C26.647 18.5702 26.5561 18.6473 26.4526 18.7041C26.3491 18.7609 26.2352 18.7961 26.1178 18.8078C26.0003 18.8194 25.8817 18.8072 25.7691 18.7719C25.6565 18.7365 25.5522 18.6787 25.4625 18.602L23.9308 17.2895C23.7635 17.136 23.6623 16.9234 23.6488 16.6967C23.6352 16.47 23.7103 16.2469 23.8582 16.0745C24.006 15.9021 24.2151 15.7939 24.4412 15.7728C24.6673 15.7517 24.8928 15.8193 25.0701 15.9613L25.9088 16.6792L27.7515 14.3351C27.8215 14.2423 27.9093 14.1644 28.0098 14.106C28.1103 14.0476 28.2215 14.0098 28.3367 13.9948C28.452 13.9799 28.5691 13.988 28.6812 14.0189C28.7932 14.0497 28.898 14.1026 28.9894 14.1744C29.0808 14.2463 29.1569 14.3356 29.2134 14.4372C29.2698 14.5388 29.3054 14.6507 29.3181 14.7662C29.3308 14.8818 29.3203 14.9987 29.2873 15.1101C29.2542 15.2216 29.1993 15.3253 29.1257 15.4153Z" fill="#95AAF1"/>
<path d="M10.9292 21.0014C10.8145 21.0038 10.7054 21.051 10.6251 21.133C10.5449 21.2149 10.5 21.325 10.5 21.4397V29.5313C10.5 29.6521 10.5984 29.7505 10.7192 29.7505H12.7943C12.9898 29.7505 13.1618 29.6206 13.2156 29.4329L15.1515 22.6092C15.2119 22.3966 15.1896 22.1691 15.089 21.9723C14.9885 21.7756 14.8171 21.6242 14.6094 21.5487C13.8154 21.2586 12.6 20.9738 10.9292 21.0014ZM29.7504 25.813C28.0009 25.813 24.5004 28.0285 22.7496 28.0285C21 28.0285 19.0312 26.6884 19.0312 26.6884C19.0312 26.6884 21.3885 27.1255 22.7496 27.1255C24.1119 27.1255 24.4991 26.6609 24.4991 26.0322C24.4991 24.5005 21.8977 24.2629 20.5826 24.0634C19.2911 23.3442 18.6204 22.7759 16.4811 22.5947C16.4679 22.7194 16.4482 22.8428 16.4141 22.9675L14.6567 29.1625C16.6477 30.0681 20.076 31.5027 21.8754 31.5027C24.5004 31.5027 31.5013 28.0022 31.5013 27.1281C31.5 26.2501 30.6259 25.813 29.7504 25.813Z" fill="#5B7DDE"/>
</g>
<defs>
<clipPath id="clip0_59_216">
<rect width="42" height="42" fill="white"/>
</clipPath>
</defs>
</svg>
