<svg width="43" height="42" viewBox="0 0 43 42" fill="none" xmlns="http://www.w3.org/2000/svg">
<g clip-path="url(#clip0_59_226)">
<path d="M34.7917 42H8.54166C6.45308 42 4.45004 41.1703 2.97319 39.6935C1.49634 38.2166 0.666656 36.2136 0.666656 34.125L0.666656 7.875C0.666656 5.78642 1.49634 3.78338 2.97319 2.30653C4.45004 0.829685 6.45308 0 8.54166 0L34.7917 0C36.8802 0 38.8833 0.829685 40.3601 2.30653C41.837 3.78338 42.6667 5.78642 42.6667 7.875V34.125C42.6667 36.2136 41.837 38.2166 40.3601 39.6935C38.8833 41.1703 36.8802 42 34.7917 42Z" fill="#F4F6F8"/>
<path d="M31.7217 12.0973L27.128 10.5354C26.991 10.4882 26.8423 10.4882 26.7053 10.5354L22.1116 12.0973C21.9817 12.1415 21.8689 12.2252 21.7891 12.3368C21.7093 12.4484 21.6665 12.5822 21.6667 12.7194V16.2356C21.6667 20.5275 26.456 22.6117 26.6607 22.6996C26.7419 22.7341 26.8291 22.7519 26.9173 22.7519C27.0055 22.7519 27.0928 22.7341 27.1739 22.6996C27.3773 22.6117 32.1667 20.5262 32.1667 16.2343V12.7194C32.1668 12.5822 32.124 12.4484 32.0442 12.3368C31.9644 12.2252 31.8516 12.1415 31.7217 12.0973ZM29.7923 15.4153L27.3865 18.4773C27.3135 18.5701 27.2225 18.6471 27.119 18.7037C27.0155 18.7604 26.9016 18.7956 26.7841 18.8071C26.6667 18.8186 26.5481 18.8063 26.4356 18.7708C26.323 18.7353 26.2188 18.6775 26.1292 18.6007L24.5975 17.2882C24.5103 17.2135 24.4386 17.1223 24.3866 17.0199C24.3346 16.9175 24.3033 16.8059 24.2945 16.6914C24.2857 16.5769 24.2995 16.4617 24.3351 16.3526C24.3708 16.2434 24.4276 16.1423 24.5023 16.0551C24.577 15.9679 24.6682 15.8963 24.7706 15.8443C24.873 15.7923 24.9846 15.761 25.0992 15.7522C25.2137 15.7433 25.3288 15.7571 25.4379 15.7928C25.5471 15.8284 25.6482 15.8852 25.7354 15.96L26.5741 16.6779L28.4168 14.3338C28.5603 14.1514 28.7703 14.0334 29.0007 14.0058C29.231 13.9783 29.4629 14.0434 29.6453 14.1868C29.8277 14.3302 29.9457 14.5402 29.9733 14.7706C30.0008 15.001 29.9358 15.2329 29.7923 15.4153Z" fill="#95AAF1"/>
<path d="M32.1667 22.9687C32.1667 23.8087 31.475 24.5004 30.635 24.5004H29.5325C29.5224 25.4181 29.2765 26.3178 28.8184 27.113C28.3603 27.9083 27.7054 28.5724 26.9167 29.0416V29.9695C26.9167 30.8082 26.225 31.4999 25.385 31.4999H24.5095C24.1042 31.4975 23.7161 31.3353 23.4296 31.0485C23.1431 30.7618 22.9812 30.3736 22.9792 29.9682V29.749H19.4787V29.9682C19.4787 30.8082 18.787 31.4999 17.947 31.4999H17.0729C16.2329 31.4999 15.5412 30.8082 15.5412 29.9682V28.7515C14.3481 27.9614 13.4882 26.759 13.1262 25.3745H12.6983C11.8583 25.3745 11.1667 24.6841 11.1667 23.8441V22.5316C11.1667 21.6916 11.8583 20.9999 12.6983 20.9999H13.915C14.125 20.6849 14.3705 20.387 14.65 20.1074C14.9296 19.8279 15.2275 19.5824 15.5425 19.3724V16.4062C15.5425 16.2132 15.6305 16.0295 15.7696 15.9074C15.8421 15.8478 15.9262 15.8038 16.0166 15.7783C16.1069 15.7528 16.2016 15.7462 16.2946 15.7591C18.6308 16.1095 19.5142 17.2816 19.8029 18.3749H20.24C21.202 21.5079 24.1158 23.5291 25.9795 24.3074C26.2775 24.4387 26.6003 24.5004 26.9153 24.5004C27.2303 24.5004 27.5545 24.4387 27.8512 24.3074C28.4457 24.062 29.1374 23.6866 29.8462 23.1879H30.6337C30.7557 23.1879 30.8528 23.092 30.8528 22.9687C30.8528 22.8453 30.757 22.7495 30.6337 22.7495C30.577 22.7498 30.5207 22.741 30.467 22.7232C30.8345 22.4345 31.202 22.1103 31.5432 21.7428C31.9212 22.0237 32.1667 22.4699 32.1667 22.9687Z" fill="#5B7DDE"/>
</g>
<defs>
<clipPath id="clip0_59_226">
<rect width="42" height="42" fill="white" transform="translate(0.666656)"/>
</clipPath>
</defs>
</svg>
