<svg width="43" height="42" viewBox="0 0 43 42" fill="none" xmlns="http://www.w3.org/2000/svg">
<g clip-path="url(#clip0_59_235)">
<path d="M34.4584 42H8.20837C6.11979 42 4.11676 41.1703 2.63991 39.6935C1.16306 38.2166 0.333374 36.2136 0.333374 34.125L0.333374 7.875C0.333374 5.78642 1.16306 3.78338 2.63991 2.30653C4.11676 0.829685 6.11979 0 8.20837 0L34.4584 0C36.547 0 38.55 0.829685 40.0268 2.30653C41.5037 3.78338 42.3334 5.78642 42.3334 7.875V34.125C42.3334 36.2136 41.5037 38.2166 40.0268 39.6935C38.55 41.1703 36.547 42 34.4584 42Z" fill="#F4F6F8"/>
<path d="M18.3684 21.6562L11.6918 21.6653L12.2784 15.3483C12.3333 14.751 12.6099 14.196 13.0538 13.7927C13.4977 13.3893 14.0766 13.167 14.6764 13.1695H15.4639C15.2972 13.7208 15.2106 14.3153 15.2106 14.9283C15.2093 17.6491 17.0113 20.1599 18.3684 21.6562ZM22.5501 23.4057L16.9247 31.4999H13.4151C12.7326 31.4999 12.0855 31.2111 11.6301 30.7124C11.1746 30.2136 10.9568 29.5403 11.0171 28.8657L11.5251 23.4149L20.3451 23.4057H22.5501ZM24.3088 21.6562C25.6567 20.1599 27.4588 17.6491 27.4588 14.927C27.4588 14.314 27.3709 13.7195 27.2055 13.1682H27.993C29.2438 13.1682 30.2676 14.104 30.3909 15.347L30.9776 21.647L24.3088 21.6562ZM31.1404 23.3952L24.6789 23.4044L19.0562 31.4999H29.2556C29.5907 31.5001 29.9221 31.4303 30.2287 31.295C30.5352 31.1596 30.8101 30.9617 31.0358 30.714C31.2614 30.4663 31.4328 30.1741 31.5389 29.8563C31.6451 29.5385 31.6837 29.202 31.6522 28.8683L31.1404 23.3952Z" fill="#5B7DDE"/>
<path d="M21.3347 10.5C18.9223 10.5 16.9601 12.4871 16.9601 14.9297C16.9601 18.3002 20.7467 21.5788 20.9081 21.7179C21.0266 21.8204 21.178 21.8767 21.3347 21.8767C21.4913 21.8767 21.6427 21.8204 21.7613 21.7179C21.9227 21.5801 25.7093 18.3015 25.7093 14.9297C25.7093 12.4871 23.7458 10.5 21.3347 10.5ZM21.3347 16.6254C20.8849 16.6041 20.4605 16.4104 20.1497 16.0845C19.8389 15.7586 19.6655 15.3256 19.6655 14.8752C19.6655 14.4249 19.8389 13.9918 20.1497 13.6659C20.4605 13.3401 20.8849 13.1463 21.3347 13.125C21.7906 13.1375 22.2236 13.3274 22.5416 13.6542C22.8597 13.9811 23.0376 14.4192 23.0376 14.8752C23.0376 15.3313 22.8597 15.7693 22.5416 16.0962C22.2236 16.4231 21.7906 16.613 21.3347 16.6254Z" fill="#95AAF1"/>
</g>
<defs>
<clipPath id="clip0_59_235">
<rect width="42" height="42" fill="white" transform="translate(0.333374)"/>
</clipPath>
</defs>
</svg>
