<svg width="26" height="26" viewBox="0 0 26 26" fill="none" xmlns="http://www.w3.org/2000/svg">
<rect width="26" height="26" rx="4" fill="#F4F6F8" fill-opacity="0.2"/>
<g clip-path="url(#clip0_59_464)">
<path d="M13 5.84088C11.5087 5.84257 10.0789 6.43575 9.02439 7.49027C7.96987 8.5448 7.37669 9.97456 7.375 11.4659C7.375 16.2791 12.4886 19.9142 12.7066 20.0664C12.7926 20.1266 12.895 20.1589 13 20.1589C13.105 20.1589 13.2074 20.1266 13.2934 20.0664C13.5114 19.9142 18.625 16.2791 18.625 11.4659C18.6233 9.97456 18.0301 8.5448 16.9756 7.49027C15.9211 6.43575 14.4913 5.84257 13 5.84088ZM13 9.42043C13.4046 9.42043 13.8 9.54039 14.1364 9.76515C14.4728 9.98991 14.7349 10.3094 14.8898 10.6831C15.0446 11.0569 15.0851 11.4682 15.0062 11.8649C14.9272 12.2617 14.7324 12.6262 14.4464 12.9122C14.1603 13.1983 13.7958 13.3931 13.399 13.472C13.0023 13.551 12.591 13.5105 12.2172 13.3556C11.8435 13.2008 11.524 12.9386 11.2993 12.6023C11.0745 12.2659 10.9545 11.8704 10.9545 11.4659C10.9545 10.9234 11.17 10.4031 11.5536 10.0195C11.9372 9.63593 12.4575 9.42043 13 9.42043Z" fill="white"/>
</g>
<defs>
<clipPath id="clip0_59_464">
<rect width="15" height="15" fill="white" transform="translate(5.5 5.5)"/>
</clipPath>
</defs>
</svg>
