<svg width="146" height="48" viewBox="0 0 146 48" fill="none" xmlns="http://www.w3.org/2000/svg">
<g clip-path="url(#clip0_59_185)">
<path d="M14.1504 6.4668C12.0996 6.4668 10.5117 7.24023 9.38672 8.78711C8.26172 10.3223 7.69922 12.4668 7.69922 15.2207C7.69922 20.9512 9.84961 23.8164 14.1504 23.8164C15.9551 23.8164 18.1406 23.3652 20.707 22.4629V27.0332C18.5977 27.9121 16.2422 28.3516 13.6406 28.3516C9.90234 28.3516 7.04297 27.2207 5.0625 24.959C3.08203 22.6855 2.0918 19.4277 2.0918 15.1855C2.0918 12.5137 2.57812 10.1758 3.55078 8.17188C4.52344 6.15625 5.91797 4.61523 7.73438 3.54883C9.5625 2.4707 11.7012 1.93164 14.1504 1.93164C16.6465 1.93164 19.1543 2.53516 21.6738 3.74219L19.916 8.17188C18.9551 7.71484 17.9883 7.31641 17.0156 6.97656C16.043 6.63672 15.0879 6.4668 14.1504 6.4668ZM47.1445 28H40.957L31.6406 14.9746V28H26.1914V2.30078H31.6406V14.7461L40.8516 2.30078H46.6523L37.2832 14.6406L47.1445 28ZM66.1113 28L64.248 21.8828H54.8789L53.0156 28H47.1445L56.2148 2.19531H62.877L71.9824 28H66.1113ZM62.9473 17.3125C61.2246 11.7695 60.252 8.63477 60.0293 7.9082C59.8184 7.18164 59.666 6.60742 59.5723 6.18555C59.1855 7.68555 58.0781 11.3945 56.25 17.3125H62.9473ZM75.2344 2.30078H80.1387V14.7109L80.0684 18.0332L79.8926 21.8125H79.998L91.8633 2.30078H98.3848V28H93.5332V15.6602C93.5332 14.0078 93.6387 11.5586 93.8496 8.3125H93.709L81.791 28H75.2344V2.30078ZM95.3262 -6.04883C95.1035 -3.85742 94.2773 -2.25781 92.8477 -1.25C91.418 -0.253906 89.3555 0.244141 86.6602 0.244141C83.8828 0.244141 81.8262 -0.236328 80.4902 -1.19727C79.166 -2.1582 78.4219 -3.77539 78.2578 -6.04883H83.0566C83.1387 -4.8418 83.4375 -3.99219 83.9531 -3.5C84.4805 -3.01953 85.418 -2.7793 86.7656 -2.7793C87.9492 -2.7793 88.8281 -3.04297 89.4023 -3.57031C89.9883 -4.10938 90.3457 -4.93555 90.4746 -6.04883H95.3262Z" fill="#161C24"/>
<path d="M8.629 45H7.957V38.546H3.82V45H3.148V38.035H8.629V45ZM13.4893 43.481C13.6246 43.6817 13.7646 43.852 13.9093 43.992C14.0586 44.1273 14.215 44.2393 14.3783 44.328C14.5416 44.412 14.7143 44.4727 14.8963 44.51C15.083 44.5473 15.279 44.566 15.4843 44.566C15.895 44.566 16.2543 44.4913 16.5623 44.342C16.8703 44.1927 17.127 43.9827 17.3323 43.712C17.5423 43.4367 17.6986 43.11 17.8013 42.732C17.9086 42.3493 17.9623 41.9293 17.9623 41.472C17.9623 40.436 17.771 39.6753 17.3883 39.19C17.0056 38.7 16.4573 38.455 15.7433 38.455C15.2813 38.455 14.8636 38.574 14.4903 38.812C14.117 39.05 13.7833 39.3813 13.4893 39.806V43.481ZM13.4613 39.288C13.7693 38.868 14.1286 38.5343 14.5393 38.287C14.9546 38.0397 15.419 37.916 15.9323 37.916C16.7863 37.916 17.4513 38.2123 17.9273 38.805C18.408 39.3977 18.6483 40.2867 18.6483 41.472C18.6483 41.9807 18.5806 42.4567 18.4453 42.9C18.3146 43.3387 18.1186 43.7213 17.8573 44.048C17.6006 44.37 17.2833 44.6243 16.9053 44.811C16.532 44.9977 16.1003 45.091 15.6103 45.091C15.139 45.091 14.7306 45.0047 14.3853 44.832C14.04 44.6593 13.7413 44.405 13.4893 44.069V47.464H12.8173V38.035H13.1883C13.305 38.035 13.3726 38.0933 13.3913 38.21L13.4613 39.288ZM25.1762 37.923C25.6756 37.923 26.1212 38.0093 26.5132 38.182C26.9099 38.35 27.2436 38.5903 27.5142 38.903C27.7849 39.2157 27.9902 39.5937 28.1302 40.037C28.2749 40.4757 28.3472 40.968 28.3472 41.514C28.3472 42.06 28.2749 42.5523 28.1302 42.991C27.9902 43.4297 27.7849 43.8053 27.5142 44.118C27.2436 44.4307 26.9099 44.671 26.5132 44.839C26.1212 45.007 25.6756 45.091 25.1762 45.091C24.6769 45.091 24.2289 45.007 23.8322 44.839C23.4402 44.671 23.1066 44.4307 22.8312 44.118C22.5606 43.8053 22.3529 43.4297 22.2082 42.991C22.0682 42.5523 21.9982 42.06 21.9982 41.514C21.9982 40.968 22.0682 40.4757 22.2082 40.037C22.3529 39.5937 22.5606 39.2157 22.8312 38.903C23.1066 38.5903 23.4402 38.35 23.8322 38.182C24.2289 38.0093 24.6769 37.923 25.1762 37.923ZM25.1762 44.566C25.5916 44.566 25.9532 44.496 26.2612 44.356C26.5739 44.2113 26.8329 44.006 27.0382 43.74C27.2482 43.474 27.4046 43.1543 27.5072 42.781C27.6099 42.403 27.6612 41.9807 27.6612 41.514C27.6612 41.052 27.6099 40.632 27.5072 40.254C27.4046 39.876 27.2482 39.554 27.0382 39.288C26.8329 39.0173 26.5739 38.8097 26.2612 38.665C25.9532 38.5203 25.5916 38.448 25.1762 38.448C24.7609 38.448 24.3969 38.5203 24.0842 38.665C23.7762 38.8097 23.5172 39.0173 23.3072 39.288C23.1019 39.554 22.9456 39.876 22.8382 40.254C22.7356 40.632 22.6842 41.052 22.6842 41.514C22.6842 41.9807 22.7356 42.403 22.8382 42.781C22.9456 43.1543 23.1019 43.474 23.3072 43.74C23.5172 44.006 23.7762 44.2113 24.0842 44.356C24.3969 44.496 24.7609 44.566 25.1762 44.566ZM36.4409 38.231C36.4782 38.175 36.5272 38.1283 36.5879 38.091C36.6532 38.0537 36.7209 38.035 36.7909 38.035H37.3019L35.2579 40.779C35.1505 40.9283 35.0315 41.0567 34.9009 41.164C34.7749 41.2667 34.6209 41.346 34.4389 41.402C34.6582 41.4487 34.8472 41.5303 35.0059 41.647C35.1645 41.759 35.3092 41.9107 35.4399 42.102L37.5189 45H37.0499C36.9285 45 36.8329 44.9813 36.7629 44.944C36.6929 44.902 36.6322 44.8413 36.5809 44.762L34.8169 42.291C34.6815 42.095 34.5182 41.948 34.3269 41.85C34.1402 41.7473 33.9279 41.696 33.6899 41.696H32.7869V45.007H32.1149V38.035H32.7869V41.234H33.5919C33.7879 41.234 33.9722 41.1873 34.1449 41.094C34.3222 41.0007 34.4692 40.8723 34.5859 40.709L36.4409 38.231ZM44.7125 41.633C44.0498 41.6563 43.4781 41.71 42.9975 41.794C42.5215 41.8733 42.1271 41.983 41.8145 42.123C41.5065 42.263 41.2778 42.431 41.1285 42.627C40.9791 42.8183 40.9045 43.0377 40.9045 43.285C40.9045 43.5183 40.9418 43.7213 41.0165 43.894C41.0958 44.062 41.1985 44.202 41.3245 44.314C41.4551 44.4213 41.6045 44.5007 41.7725 44.552C41.9405 44.6033 42.1155 44.629 42.2975 44.629C42.5681 44.629 42.8155 44.601 43.0395 44.545C43.2681 44.4843 43.4781 44.4027 43.6695 44.3C43.8655 44.1927 44.0475 44.0667 44.2155 43.922C44.3835 43.7773 44.5491 43.621 44.7125 43.453V41.633ZM40.6175 39.022C40.9815 38.658 41.3641 38.3827 41.7655 38.196C42.1668 38.0093 42.6218 37.916 43.1305 37.916C43.5038 37.916 43.8305 37.9767 44.1105 38.098C44.3905 38.2147 44.6215 38.385 44.8035 38.609C44.9901 38.8283 45.1301 39.0967 45.2235 39.414C45.3168 39.7267 45.3635 40.0767 45.3635 40.464V45H45.0975C44.9575 45 44.8711 44.9347 44.8385 44.804L44.7405 43.908C44.5491 44.0947 44.3578 44.2627 44.1665 44.412C43.9798 44.5613 43.7838 44.6873 43.5785 44.79C43.3731 44.8927 43.1515 44.972 42.9135 45.028C42.6755 45.084 42.4141 45.112 42.1295 45.112C41.8915 45.112 41.6605 45.077 41.4365 45.007C41.2125 44.937 41.0118 44.8297 40.8345 44.685C40.6618 44.5403 40.5218 44.356 40.4145 44.132C40.3118 43.9033 40.2605 43.6303 40.2605 43.313C40.2605 43.019 40.3445 42.746 40.5125 42.494C40.6805 42.242 40.9441 42.0227 41.3035 41.836C41.6628 41.6493 42.1225 41.5 42.6825 41.388C43.2471 41.276 43.9238 41.2107 44.7125 41.192V40.464C44.7125 39.82 44.5725 39.3253 44.2925 38.98C44.0171 38.63 43.6065 38.455 43.0605 38.455C42.7245 38.455 42.4375 38.5017 42.1995 38.595C41.9661 38.6883 41.7678 38.791 41.6045 38.903C41.4411 39.015 41.3081 39.1177 41.2055 39.211C41.1028 39.3043 41.0165 39.351 40.9465 39.351C40.8951 39.351 40.8531 39.3393 40.8205 39.316C40.7878 39.2927 40.7598 39.2623 40.7365 39.225L40.6175 39.022ZM54.8243 38.546H51.9123V45H51.2403V38.546H48.3283V38.035H54.8243V38.546ZM69.4134 38.035V45H68.7484V39.386C68.7484 39.3207 68.7507 39.2507 68.7554 39.176C68.7601 39.1013 68.7671 39.0267 68.7764 38.952C68.7437 39.0173 68.7111 39.078 68.6784 39.134C68.6504 39.1853 68.6201 39.232 68.5874 39.274C68.5781 39.2833 68.5127 39.372 68.3914 39.54C68.2701 39.7033 68.1091 39.9157 67.9084 40.177C67.7124 40.4383 67.4884 40.7347 67.2364 41.066C66.9891 41.3973 66.7371 41.7357 66.4804 42.081C65.8737 42.8883 65.1854 43.8053 64.4154 44.832C64.3874 44.874 64.3501 44.9137 64.3034 44.951C64.2614 44.9837 64.2147 45 64.1634 45H63.7784V38.035H64.4504V43.649C64.4504 43.7143 64.4481 43.7843 64.4434 43.859C64.4387 43.9337 64.4317 44.0083 64.4224 44.083C64.4504 44.0177 64.4807 43.9593 64.5134 43.908C64.5461 43.852 64.5764 43.803 64.6044 43.761C64.6091 43.7517 64.6721 43.6653 64.7934 43.502C64.9194 43.3387 65.0804 43.1263 65.2764 42.865C65.4771 42.599 65.7011 42.3003 65.9484 41.969C66.1957 41.6377 66.4501 41.2993 66.7114 40.954C67.3181 40.1467 68.0064 39.232 68.7764 38.21C68.8044 38.1633 68.8394 38.1237 68.8814 38.091C68.9281 38.0537 68.9771 38.035 69.0284 38.035H69.4134ZM79.0791 38.035V45H78.4071V41.507H74.2701V45H73.5981V38.035H74.2701V40.996H78.4071V38.035H79.0791ZM85.7314 44.524C86.0254 44.524 86.2914 44.489 86.5294 44.419C86.7674 44.349 86.968 44.2487 87.1314 44.118C87.2947 43.9873 87.4207 43.8287 87.5094 43.642C87.598 43.4553 87.6424 43.2477 87.6424 43.019C87.6424 42.809 87.6074 42.6177 87.5374 42.445C87.4674 42.2723 87.3554 42.1253 87.2014 42.004C87.052 41.878 86.856 41.7823 86.6134 41.717C86.3754 41.647 86.0884 41.612 85.7524 41.612H83.9114V44.524H85.7314ZM83.9114 38.497V41.164H85.5634C85.8154 41.164 86.0487 41.1313 86.2634 41.066C86.478 40.996 86.6624 40.898 86.8164 40.772C86.9704 40.646 87.0894 40.4967 87.1734 40.324C87.262 40.1467 87.3064 39.9507 87.3064 39.736C87.3064 39.5773 87.276 39.4257 87.2154 39.281C87.1594 39.1317 87.0614 38.9987 86.9214 38.882C86.786 38.7653 86.6064 38.672 86.3824 38.602C86.163 38.532 85.89 38.497 85.5634 38.497H83.9114ZM85.5844 38.035C86.0044 38.035 86.3614 38.0793 86.6554 38.168C86.9494 38.252 87.1874 38.3687 87.3694 38.518C87.5514 38.6627 87.6844 38.833 87.7684 39.029C87.8524 39.225 87.8944 39.4303 87.8944 39.645C87.8944 39.799 87.871 39.9623 87.8244 40.135C87.7777 40.303 87.6984 40.4663 87.5864 40.625C87.4744 40.7837 87.3227 40.926 87.1314 41.052C86.9447 41.178 86.709 41.2713 86.4244 41.332C87.0544 41.4067 87.5187 41.5957 87.8174 41.899C88.116 42.1977 88.2654 42.5733 88.2654 43.026C88.2654 43.3387 88.2024 43.6187 88.0764 43.866C87.955 44.1087 87.7824 44.314 87.5584 44.482C87.339 44.65 87.073 44.7783 86.7604 44.867C86.4524 44.9557 86.1117 45 85.7384 45H83.2674V38.035H85.5844ZM96.893 40.814C96.893 40.4407 96.8393 40.107 96.732 39.813C96.6293 39.5143 96.4823 39.2623 96.291 39.057C96.0997 38.8517 95.871 38.6953 95.605 38.588C95.3437 38.476 95.0543 38.42 94.737 38.42C94.3777 38.42 94.0557 38.476 93.771 38.588C93.4863 38.7 93.239 38.861 93.029 39.071C92.8237 39.281 92.658 39.533 92.532 39.827C92.406 40.121 92.322 40.45 92.28 40.814H96.893ZM92.245 41.241V41.374C92.245 41.8967 92.3057 42.3563 92.427 42.753C92.5483 43.1497 92.721 43.4833 92.945 43.754C93.169 44.02 93.4397 44.2207 93.757 44.356C94.0743 44.4913 94.429 44.559 94.821 44.559C95.171 44.559 95.4743 44.5217 95.731 44.447C95.9877 44.3677 96.2023 44.2813 96.375 44.188C96.5523 44.09 96.6923 44.0037 96.795 43.929C96.8977 43.8497 96.9723 43.81 97.019 43.81C97.0797 43.81 97.1263 43.8333 97.159 43.88L97.341 44.104C97.229 44.244 97.0797 44.3747 96.893 44.496C96.711 44.6173 96.5057 44.7223 96.277 44.811C96.053 44.895 95.8103 44.9627 95.549 45.014C95.2923 45.0653 95.0333 45.091 94.772 45.091C94.296 45.091 93.862 45.0093 93.47 44.846C93.078 44.678 92.742 44.4353 92.462 44.118C92.182 43.8007 91.965 43.4133 91.811 42.956C91.6617 42.494 91.587 41.9667 91.587 41.374C91.587 40.8747 91.657 40.415 91.797 39.995C91.9417 39.5703 92.147 39.2063 92.413 38.903C92.6837 38.595 93.0127 38.3547 93.4 38.182C93.792 38.0093 94.2353 37.923 94.73 37.923C95.122 37.923 95.486 37.9907 95.822 38.126C96.158 38.2613 96.4497 38.4597 96.697 38.721C96.9443 38.9777 97.138 39.295 97.278 39.673C97.4227 40.051 97.495 40.485 97.495 40.975C97.495 41.0777 97.481 41.1477 97.453 41.185C97.425 41.2223 97.3783 41.241 97.313 41.241H92.245ZM106.679 38.035V45H106.007V41.507H101.87V45H101.198V38.035H101.87V40.996H106.007V38.035H106.679ZM116.439 38.546H113.527V45H112.855V38.546H109.943V38.035H116.439V38.546ZM123.492 41.633C122.829 41.6563 122.258 41.71 121.777 41.794C121.301 41.8733 120.907 41.983 120.594 42.123C120.286 42.263 120.057 42.431 119.908 42.627C119.759 42.8183 119.684 43.0377 119.684 43.285C119.684 43.5183 119.721 43.7213 119.796 43.894C119.875 44.062 119.978 44.202 120.104 44.314C120.235 44.4213 120.384 44.5007 120.552 44.552C120.72 44.6033 120.895 44.629 121.077 44.629C121.348 44.629 121.595 44.601 121.819 44.545C122.048 44.4843 122.258 44.4027 122.449 44.3C122.645 44.1927 122.827 44.0667 122.995 43.922C123.163 43.7773 123.329 43.621 123.492 43.453V41.633ZM119.397 39.022C119.761 38.658 120.144 38.3827 120.545 38.196C120.946 38.0093 121.401 37.916 121.91 37.916C122.283 37.916 122.61 37.9767 122.89 38.098C123.17 38.2147 123.401 38.385 123.583 38.609C123.77 38.8283 123.91 39.0967 124.003 39.414C124.096 39.7267 124.143 40.0767 124.143 40.464V45H123.877C123.737 45 123.651 44.9347 123.618 44.804L123.52 43.908C123.329 44.0947 123.137 44.2627 122.946 44.412C122.759 44.5613 122.563 44.6873 122.358 44.79C122.153 44.8927 121.931 44.972 121.693 45.028C121.455 45.084 121.194 45.112 120.909 45.112C120.671 45.112 120.44 45.077 120.216 45.007C119.992 44.937 119.791 44.8297 119.614 44.685C119.441 44.5403 119.301 44.356 119.194 44.132C119.091 43.9033 119.04 43.6303 119.04 43.313C119.04 43.019 119.124 42.746 119.292 42.494C119.46 42.242 119.724 42.0227 120.083 41.836C120.442 41.6493 120.902 41.5 121.462 41.388C122.027 41.276 122.703 41.2107 123.492 41.192V40.464C123.492 39.82 123.352 39.3253 123.072 38.98C122.797 38.63 122.386 38.455 121.84 38.455C121.504 38.455 121.217 38.5017 120.979 38.595C120.746 38.6883 120.547 38.791 120.384 38.903C120.221 39.015 120.088 39.1177 119.985 39.211C119.882 39.3043 119.796 39.351 119.726 39.351C119.675 39.351 119.633 39.3393 119.6 39.316C119.567 39.2927 119.539 39.2623 119.516 39.225L119.397 39.022ZM128.936 43.481C129.072 43.6817 129.212 43.852 129.356 43.992C129.506 44.1273 129.662 44.2393 129.825 44.328C129.989 44.412 130.161 44.4727 130.343 44.51C130.53 44.5473 130.726 44.566 130.931 44.566C131.342 44.566 131.701 44.4913 132.009 44.342C132.317 44.1927 132.574 43.9827 132.779 43.712C132.989 43.4367 133.146 43.11 133.248 42.732C133.356 42.3493 133.409 41.9293 133.409 41.472C133.409 40.436 133.218 39.6753 132.835 39.19C132.453 38.7 131.904 38.455 131.19 38.455C130.728 38.455 130.311 38.574 129.937 38.812C129.564 39.05 129.23 39.3813 128.936 39.806V43.481ZM128.908 39.288C129.216 38.868 129.576 38.5343 129.986 38.287C130.402 38.0397 130.866 37.916 131.379 37.916C132.233 37.916 132.898 38.2123 133.374 38.805C133.855 39.3977 134.095 40.2867 134.095 41.472C134.095 41.9807 134.028 42.4567 133.892 42.9C133.762 43.3387 133.566 43.7213 133.304 44.048C133.048 44.37 132.73 44.6243 132.352 44.811C131.979 44.9977 131.547 45.091 131.057 45.091C130.586 45.091 130.178 45.0047 129.832 44.832C129.487 44.6593 129.188 44.405 128.936 44.069V47.464H128.264V38.035H128.635C128.752 38.035 128.82 38.0933 128.838 38.21L128.908 39.288ZM141.548 41.43V38.497H140.057C139.73 38.497 139.455 38.5437 139.231 38.637C139.012 38.7303 138.832 38.8493 138.692 38.994C138.557 39.1387 138.459 39.2997 138.398 39.477C138.342 39.6543 138.314 39.8293 138.314 40.002C138.314 40.226 138.358 40.4267 138.447 40.604C138.54 40.7813 138.673 40.9307 138.846 41.052C139.019 41.1733 139.229 41.2667 139.476 41.332C139.723 41.3973 140.001 41.43 140.309 41.43H141.548ZM142.199 38.035V45H141.548V41.871H140.708C140.591 41.871 140.491 41.878 140.407 41.892C140.328 41.906 140.255 41.9293 140.19 41.962C140.129 41.9947 140.073 42.0367 140.022 42.088C139.971 42.1347 139.917 42.1953 139.861 42.27L137.824 44.762C137.777 44.8413 137.719 44.902 137.649 44.944C137.584 44.9813 137.49 45 137.369 45H136.907L139.266 42.144C139.392 41.9433 139.562 41.808 139.777 41.738C139.394 41.71 139.068 41.6423 138.797 41.535C138.531 41.4277 138.312 41.2947 138.139 41.136C137.971 40.9727 137.847 40.7907 137.768 40.59C137.693 40.3847 137.656 40.1677 137.656 39.939C137.656 39.715 137.698 39.491 137.782 39.267C137.866 39.0383 138.001 38.833 138.188 38.651C138.379 38.469 138.627 38.322 138.93 38.21C139.233 38.0933 139.602 38.035 140.036 38.035H142.199Z" fill="#161C24"/>
</g>
<defs>
<clipPath id="clip0_59_185">
<rect width="146" height="48" fill="white"/>
</clipPath>
</defs>
</svg>
