<svg width="28" height="29" viewBox="0 0 28 29" fill="none" xmlns="http://www.w3.org/2000/svg">
<g clip-path="url(#clip0_59_249)">
<path d="M14 22.5884C18.467 22.5884 22.0883 18.9672 22.0883 14.5001C22.0883 10.0331 18.467 6.41187 14 6.41187C9.53297 6.41187 5.91173 10.0331 5.91173 14.5001C5.91173 18.9672 9.53297 22.5884 14 22.5884Z" fill="#5B7DDE"/>
<path d="M13.7102 4.9899C14.432 5.18677 15.1703 4.61802 15.1594 3.87427V1.65396C15.1703 0.91568 14.432 0.341461 13.7102 0.538336H13.7156C13.207 0.669586 12.8516 1.12896 12.8516 1.65396V3.87427C12.8461 4.39927 13.2016 4.85865 13.7102 4.9899ZM7.68907 5.87584C7.95157 6.32974 8.4875 6.54849 8.9961 6.41177C9.71797 6.22584 10.0734 5.35631 9.69063 4.72193L8.58047 2.79693C8.21953 2.15162 7.28985 2.02584 6.77032 2.5563C6.39844 2.92271 6.31641 3.49693 6.57891 3.95631L7.68907 5.87584ZM2.30235 9.08052L4.22735 10.1907C4.68125 10.4532 5.25547 10.3766 5.62735 9.99927C6.15782 9.47427 6.03203 8.55006 5.38672 8.18912L3.46172 7.07896C2.90938 6.76177 2.20391 6.94771 1.88672 7.50005C1.8375 7.58755 1.79922 7.68052 1.77188 7.77349C1.62422 8.28209 1.84844 8.81802 2.30235 9.08052ZM4.49532 14.7899C4.69219 14.0735 4.12344 13.3297 3.37969 13.3407H1.15938C0.421097 13.3297 -0.153122 14.0735 0.0437529 14.7899C0.175003 15.2985 0.634378 15.654 1.15938 15.654H3.37969C3.89922 15.654 4.3586 15.2985 4.49532 14.7899ZM5.91172 19.5094C5.72578 18.7876 4.85625 18.4321 4.22188 18.8149L2.29688 19.9251C1.75 20.2422 1.5586 20.9477 1.87578 21.5001C1.925 21.5876 1.98516 21.6641 2.05625 21.7352C2.42266 22.1071 2.99688 22.1891 3.45625 21.9266L5.38125 20.8165C5.83516 20.554 6.05391 20.018 5.91172 19.5094ZM9.49922 22.8782C9.42813 22.8071 9.35157 22.7469 9.26406 22.6977C8.71172 22.3805 8.00625 22.5665 7.68907 23.1188L6.57891 25.0438C6.26172 25.5961 6.45313 26.3016 7.00547 26.6188C7.09297 26.668 7.18594 26.7063 7.27891 26.7337C7.78203 26.8704 8.31797 26.6516 8.58594 26.1977L9.6961 24.2727C9.95313 23.8243 9.87656 23.2501 9.49922 22.8782ZM14.2898 24.0102C13.5734 23.8133 12.8297 24.3821 12.8406 25.1258V27.3462C12.8297 28.0844 13.568 28.6586 14.2898 28.4618C14.7984 28.3305 15.1539 27.8712 15.1539 27.3462V25.1258C15.1539 24.6008 14.7984 24.1415 14.2898 24.0102ZM20.3109 23.1243C20.0484 22.6704 19.5125 22.4516 19.0039 22.5883C18.9109 22.6157 18.818 22.654 18.7305 22.7032C18.1781 23.0204 17.9867 23.7258 18.3094 24.2782L19.4195 26.2032C19.7422 26.7555 20.4477 26.9415 21 26.6243C21.0875 26.5751 21.1641 26.5149 21.2352 26.4438C21.607 26.0774 21.6891 25.5032 21.4266 25.0438L20.3109 23.1243ZM25.7031 19.9196L23.7781 18.8094C23.3242 18.5469 22.75 18.6235 22.3781 19.0008C21.8477 19.5258 21.9734 20.4501 22.6188 20.811L24.5438 21.9212C25.0961 22.2383 25.8016 22.0469 26.1188 21.4946C26.168 21.4071 26.2063 21.3141 26.2336 21.2211C26.3758 20.7235 26.157 20.1876 25.7031 19.9196ZM28 14.5001C28 14.4016 27.9836 14.3032 27.9617 14.2102V14.2157C27.8305 13.7071 27.3711 13.3516 26.8461 13.3516H24.6258C24.1008 13.3516 23.6414 13.7071 23.5102 14.2157C23.3133 14.9321 23.8875 15.6758 24.6258 15.6649H26.8461C27.4859 15.6594 28 15.1399 28 14.5001ZM22.0883 9.49068C22.2742 10.2126 23.1438 10.568 23.7781 10.1852L25.7031 9.07506C26.2555 8.7524 26.4414 8.04693 26.1242 7.49459C26.075 7.40709 26.0148 7.33052 25.9438 7.25943V7.2649C25.5773 6.89302 25.0031 6.81099 24.5438 7.07349L22.6188 8.18365C22.1703 8.45162 21.9516 8.98755 22.0883 9.49068ZM18.5008 6.12193C19.0258 6.6524 19.95 6.52662 20.3109 5.88131L21.4211 3.95631C21.7984 3.32193 21.4484 2.4524 20.7266 2.26646C20.218 2.12974 19.682 2.34849 19.4195 2.8024L18.3094 4.7274C18.0523 5.17584 18.1289 5.75006 18.5008 6.12193Z" fill="#5B7DDE"/>
</g>
<defs>
<clipPath id="clip0_59_249">
<rect width="28" height="28" fill="white" transform="translate(0 0.5)"/>
</clipPath>
</defs>
</svg>
