<svg width="28" height="28" viewBox="0 0 28 28" fill="none" xmlns="http://www.w3.org/2000/svg">
<path d="M14.1699 28H13.9129C13.9074 27.9945 13.8965 27.989 13.891 27.9835C13.1692 27.825 12.8356 27.4093 12.8356 26.671V24.6804C12.327 24.9757 11.8512 25.2492 11.3699 25.5281C11.0692 25.7031 10.752 25.7906 10.402 25.6976C9.91525 25.5664 9.61447 25.2492 9.51603 24.7625C9.41212 24.2429 9.63634 23.7671 10.0902 23.5046C10.9598 23.0015 11.8238 22.4984 12.6988 22.0007C12.7918 21.9625 12.8465 21.8695 12.8356 21.771C12.8301 19.9226 12.8301 18.0742 12.8301 16.2312V16.0671C12.7809 16.0945 12.759 16.1 12.7426 16.1109C11.1184 17.0515 9.49415 17.9867 7.86994 18.9218C7.79884 18.9546 7.75509 19.0312 7.76603 19.1132C7.7715 20.0921 7.7715 21.0656 7.76603 22.039C7.76603 22.1375 7.75509 22.2359 7.74416 22.3343C7.68947 22.8648 7.16447 23.4226 6.40431 23.346C5.85197 23.2859 5.36525 22.7554 5.36525 22.1593V20.3765L5.29962 20.4148C4.71994 20.7484 4.14025 21.082 3.56603 21.4156C3.309 21.5742 3.00822 21.6398 2.71291 21.6015C2.24806 21.5304 1.86525 21.1968 1.73947 20.7375C1.61369 20.2945 1.76134 19.7585 2.12228 19.507C2.50509 19.2445 2.91525 19.0257 3.31447 18.7906C3.59337 18.6265 3.87775 18.4625 4.17306 18.2929C3.659 17.9976 3.16134 17.7132 2.66369 17.4234C2.18244 17.1445 1.93087 16.6304 2.04025 16.1601C2.24259 15.2796 3.10119 14.9078 3.89416 15.3617C4.73634 15.8539 5.584 16.3351 6.42619 16.8273C6.51369 16.8875 6.62853 16.8875 6.71603 16.8273C8.16525 15.9851 9.61447 15.1484 11.0692 14.3117C11.2332 14.2187 11.3918 14.1203 11.5668 14.0164L10.7902 13.5679C9.41212 12.775 8.034 11.982 6.66134 11.1835C6.53556 11.107 6.45353 11.1125 6.32775 11.1835C5.50744 11.6648 4.68166 12.1406 3.85587 12.6164C3.58791 12.7804 3.27072 12.8351 2.96994 12.775C2.54884 12.6929 2.14962 12.321 2.06212 11.8945C1.95822 11.4132 2.07853 10.9867 2.47228 10.6859C2.75119 10.4726 3.06837 10.3195 3.36916 10.139C3.60978 9.99683 3.84494 9.86011 4.10197 9.71245C4.03634 9.67417 3.99259 9.64683 3.94884 9.61948C3.41291 9.30776 2.87697 9.00151 2.34103 8.68433C1.79416 8.36714 1.58087 7.67261 1.85978 7.1312C2.15509 6.55151 2.82228 6.28355 3.40197 6.55151C3.74103 6.70464 4.05822 6.91245 4.38087 7.09839C4.70353 7.28433 5.03166 7.47573 5.37619 7.67261V5.78589C5.37619 5.0312 6.11447 4.46245 6.84181 4.64839C7.41056 4.79058 7.7715 5.26089 7.7715 5.87339V8.94683C7.76603 9.02886 7.80978 9.11089 7.89181 9.1437C9.26447 9.9312 10.6317 10.7187 12.0043 11.5117L12.8301 11.9875C12.8356 11.9656 12.841 11.9492 12.841 11.9273V6.14136C12.8356 6.08667 12.8082 6.04292 12.7645 6.01558C12.4582 5.82964 12.141 5.65464 11.8293 5.47417C11.2168 5.1187 10.6043 4.77417 10.0082 4.40776C9.59806 4.1562 9.40666 3.60933 9.53244 3.16089C9.75665 2.35151 10.566 2.00698 11.3043 2.41714C11.5996 2.5812 11.8949 2.7562 12.1902 2.92573C12.3981 3.04605 12.6059 3.16089 12.8356 3.29214V1.28511C12.8356 0.66167 13.1856 0.196826 13.7488 0.0546387L13.9129 0.0163574H14.1699C14.1863 0.0272949 14.2027 0.0327637 14.2192 0.0382324C14.8262 0.142139 15.2254 0.606982 15.2254 1.22495V3.2812C15.2965 3.24292 15.3512 3.21558 15.4004 3.18823C15.8488 2.9312 16.2918 2.6687 16.7402 2.41167C17.0465 2.23667 17.3637 2.17105 17.7082 2.28042C18.2004 2.43355 18.4957 2.77808 18.5559 3.2812C18.616 3.78433 18.4192 4.19995 17.9652 4.46792C17.0848 4.98198 16.2043 5.49058 15.3238 5.99917C15.2527 6.03198 15.2145 6.10308 15.2199 6.17417V11.7906C15.2199 11.8234 15.2254 11.8617 15.2309 11.9109L15.6902 11.6429C17.1777 10.7843 18.6652 9.92573 20.1582 9.06714C20.2621 9.01792 20.3223 8.91401 20.3059 8.79917C20.3004 7.83667 20.3004 6.87417 20.3059 5.91167C20.3059 5.7148 20.3387 5.51792 20.4043 5.33198C20.5957 4.82886 21.1754 4.53355 21.7168 4.63198C22.2418 4.72495 22.6629 5.18433 22.6793 5.72026C22.6957 6.28355 22.6902 6.85229 22.6902 7.42105V7.60151L22.8434 7.51401C23.3793 7.20776 23.9098 6.90151 24.4402 6.5898C24.6863 6.44214 24.9817 6.39292 25.266 6.44214C25.7801 6.53511 26.141 6.91245 26.2395 7.44292C26.3215 7.88042 26.0973 8.37808 25.6817 8.63511C25.3426 8.84292 24.9926 9.03433 24.6481 9.23667L23.8988 9.67417C23.9317 9.69604 23.9481 9.70698 23.959 9.71792C24.4731 10.0132 24.9871 10.3031 25.4902 10.6093C25.8567 10.8226 26.0699 11.2328 26.0317 11.6539C25.9824 12.5781 25.0199 13.0867 24.216 12.6273C23.352 12.1296 22.4824 11.6265 21.6184 11.1234C21.5473 11.0687 21.4488 11.0687 21.3777 11.1179C20.0817 11.8726 18.7801 12.6273 17.4785 13.3765L16.352 14.0273C16.6746 14.2132 16.9754 14.3937 17.2762 14.5687C18.616 15.3453 19.9559 16.1164 21.3012 16.8929C21.3723 16.9476 21.4707 16.9476 21.5418 16.8984C22.4551 16.3679 23.3684 15.8429 24.2871 15.3179C24.5606 15.1593 24.8942 15.1265 25.1895 15.2304C25.6981 15.3945 25.9824 15.7609 26.0317 16.2804C26.0754 16.7507 25.8731 17.1226 25.4793 17.3796C25.2059 17.5546 24.916 17.7078 24.6317 17.8773L23.8277 18.3421C23.866 18.3695 23.8879 18.3859 23.9098 18.3968L25.6598 19.4031C26.0645 19.6382 26.2887 19.9937 26.2942 20.4585C26.3051 21.3664 25.3207 21.946 24.5168 21.5085C24.1449 21.3062 23.7785 21.082 23.4121 20.8687C23.177 20.732 22.9418 20.6007 22.6957 20.4585V21.9406C22.6957 22.0554 22.6902 22.1703 22.6793 22.2796C22.6192 22.9085 22.0777 23.3679 21.4434 23.3515C20.8199 23.3351 20.2949 22.7773 20.3004 22.1812C20.3059 21.1859 20.3004 20.1906 20.3004 19.1953C20.3004 19.1296 20.2731 19.0695 20.2238 19.0312C19.9559 18.8671 19.677 18.7085 19.4035 18.55C18.0856 17.7898 16.7731 17.0296 15.4551 16.2695C15.3785 16.2257 15.3074 16.1875 15.2145 16.1382C15.2145 18.0523 15.2145 19.9335 15.2199 21.8203C15.2254 21.875 15.2582 21.9296 15.3074 21.957C15.6957 22.1867 16.084 22.4109 16.4777 22.6351C17.0027 22.9414 17.5387 23.2367 18.0527 23.5648C18.5449 23.8765 18.6981 24.5164 18.4465 25.0523C18.2059 25.5718 17.6043 25.8617 17.0574 25.6812C16.7512 25.5773 16.4723 25.3968 16.1879 25.2382C15.8652 25.0632 15.5535 24.8718 15.2145 24.6804V26.7968C15.2145 27.1906 15.0613 27.5242 14.7332 27.7484C14.5746 27.8632 14.3668 27.9179 14.1699 28Z" fill="#5B7DDE"/>
</svg>
